<svg width="200" height="200" xmlns="http://www.w3.org/2000/svg" data-name="Capa 1">

 <g>
  <title>Layer 1</title>
  <path id="svg_1" fill-rule="evenodd" fill="#fff" d="m78.15991,106.75c-3,-0.05 -5.7,4.71 -5.37,12c0.39,8.57 6.43,17.27 6.43,25.55c0,7.09 -10.81,14.78 -10.71,29.35c0.1,16.6 8.4,25.71 31.15,25.71s28.32,-10.87 28.32,-25c0,-13 -8.38,-17.35 -8.38,-27.07c0,-10.22 5.42,-14.88 6.43,-20.6c1.19,-6.77 -2.56,-9.85 -5.33,-8.78c-2.46,1 -1.34,7.37 -9.92,7.55c-4.12,0.09 -7.16,-3.77 -7.16,-13.33s-9.64,-10.6 -10.22,-1.22c-0.18,2.78 -1.06,8.14 -6.81,8.17c-6.4,0.01 -4.61,-12.22 -8.43,-12.33z" class="cls-2"/>
  <path id="svg_2" fill-rule="evenodd" fill="#fff" d="m93.11991,125.19l10.65,0l-1.85,-89.64l-6.96,0l-1.84,89.64z" class="cls-2"/>
  <path id="svg_3" fill-rule="evenodd" fill="#fff" d="m109.07991,26.37a61.86,61.86 0 0 1 0.76,-17.27c1.67,-8.41 -0.47,-13.15 -5.12,-2.27l-11.14,26.12c-0.44,1 -1.17,1.46 0.31,3.55a4.71,4.71 0 0 1 1,2.35l7.09,0c0,-1.18 1.37,-4.32 3.87,-6.42c1.54,-1.3 3.39,-4.22 3.23,-6.06z" class="cls-2"/>
 </g>
</svg>